<svg width="138" height="264" viewBox="0 0 138 264" fill="none" xmlns="http://www.w3.org/2000/svg">
<path d="M88.1651 242.766V246.185C89.0629 247.158 89.7345 248.322 90.1303 249.593C90.526 250.864 90.636 252.209 90.4521 253.528C90.2682 254.848 89.795 256.109 89.0675 257.218C88.3399 258.328 87.3765 259.257 86.2482 259.939C85.1198 260.62 83.8553 261.036 82.5478 261.155C81.2402 261.275 79.9228 261.095 78.6927 260.63C77.4626 260.164 76.351 259.424 75.4398 258.465C74.5286 257.505 73.8411 256.35 73.4277 255.085H70.749C71.1954 256.897 72.0685 258.571 73.2933 259.964C74.5181 261.357 76.0579 262.427 77.7803 263.082C79.5027 263.738 81.356 263.958 83.181 263.725C85.006 263.493 86.748 262.813 88.2571 261.746C89.7662 260.678 90.9972 259.255 91.8444 257.597C92.6915 255.94 93.1294 254.098 93.1204 252.231C93.1113 250.364 92.6556 248.527 91.7925 246.878C90.9293 245.229 89.6845 243.818 88.1651 242.766Z" fill="#009F3D"/>
<path d="M81.7597 240.75C79.5743 240.752 77.4359 241.393 75.6003 242.597C73.7648 243.801 72.31 245.516 71.4102 247.538H74.3218C75.1122 246.26 76.2091 245.206 77.51 244.476C78.8109 243.745 80.273 243.362 81.7597 243.361H81.93V240.751L81.7597 240.75Z" fill="#009F3D"/>
<path d="M56.7197 263.805C54.4738 263.805 52.2784 263.129 50.411 261.862C48.5436 260.596 47.0881 258.795 46.2286 256.689C45.3692 254.583 45.1443 252.265 45.5825 250.029C46.0206 247.793 47.1021 245.739 48.6902 244.126C50.2783 242.514 52.3016 241.416 54.5044 240.972C56.7071 240.527 58.9903 240.755 61.0653 241.627C63.1402 242.5 64.9137 243.977 66.1615 245.873C67.4092 247.769 68.0752 249.998 68.0752 252.278C68.0725 255.334 66.8753 258.265 64.7463 260.426C62.6173 262.587 59.7306 263.802 56.7197 263.805ZM56.7197 243.366C54.9832 243.366 53.2857 243.889 51.8418 244.868C50.3979 245.847 49.2725 247.239 48.608 248.868C47.9434 250.497 47.7696 252.289 48.1083 254.018C48.4471 255.747 49.2833 257.335 50.5113 258.582C51.7392 259.828 53.3036 260.677 55.0068 261.021C56.71 261.365 58.4754 261.188 60.0797 260.514C61.6841 259.839 63.0554 258.697 64.0201 257.231C64.9849 255.765 65.4998 254.042 65.4998 252.279C65.4972 249.916 64.5712 247.65 62.9252 245.98C61.2792 244.309 59.0475 243.369 56.7197 243.366Z" fill="#F4C300"/>
<path d="M94.2793 253.766C92.0334 253.766 89.8379 253.09 87.9705 251.823C86.1031 250.557 84.6477 248.756 83.7882 246.65C82.9287 244.544 82.7039 242.226 83.142 239.99C83.5802 237.753 84.6617 235.699 86.2498 234.087C87.8379 232.475 89.8612 231.377 92.064 230.932C94.2667 230.488 96.5499 230.716 98.6249 231.588C100.7 232.461 102.473 233.938 103.721 235.834C104.969 237.73 105.635 239.959 105.635 242.238C105.632 245.295 104.435 248.225 102.306 250.387C100.177 252.548 97.2901 253.763 94.2793 253.766ZM94.2793 233.327C92.5424 233.327 90.8446 233.85 89.4006 234.83C87.9566 235.81 86.8313 237.203 86.167 238.832C85.5026 240.461 85.3291 242.253 85.6683 243.983C86.0076 245.712 86.8443 247.3 88.0728 248.547C89.3013 249.793 90.8663 250.642 92.5699 250.985C94.2735 251.329 96.0392 251.152 97.6437 250.477C99.2482 249.801 100.619 248.658 101.584 247.192C102.548 245.725 103.063 244.002 103.062 242.238C103.06 239.874 102.134 237.608 100.488 235.936C98.841 234.264 96.6081 233.324 94.2793 233.322V233.327Z" fill="#DF0024"/>
<path d="M44.1992 251.153C42.6021 251.154 41.0351 250.712 39.6667 249.877C38.2984 249.041 37.1805 247.842 36.4334 246.409C35.6863 244.976 35.3383 243.363 35.4268 241.744C35.5153 240.126 36.0369 238.562 36.9356 237.222C37.8343 235.882 39.0761 234.816 40.5271 234.139C41.9782 233.461 43.5837 233.199 45.1709 233.379C46.758 233.559 48.2667 234.175 49.5346 235.161C50.8025 236.147 51.7815 237.465 52.3664 238.974H55.0859C54.3245 236.356 52.673 234.098 50.4253 232.601C48.1776 231.103 45.4795 230.464 42.8112 230.797C40.1428 231.13 37.6773 232.413 35.8533 234.417C34.0293 236.422 32.9651 239.019 32.8502 241.746C32.7353 244.472 33.5771 247.152 35.2258 249.308C36.8744 251.464 39.223 252.956 41.8537 253.518C44.4843 254.081 47.2263 253.678 49.5917 252.381C51.9571 251.084 53.7926 248.977 54.7714 246.436H51.9413C51.192 247.859 50.0762 249.05 48.7127 249.881C47.3493 250.712 45.7893 251.151 44.1992 251.153Z" fill="#0085C7"/>
<path d="M88.165 242.761C86.3284 241.482 84.16 240.782 81.9326 240.75V243.363C83.1044 243.385 84.2599 243.646 85.3305 244.13C86.4011 244.614 87.365 245.312 88.165 246.181V242.761Z" fill="#009F3D"/>
<path d="M69.2393 230.711C66.8691 230.714 64.5592 231.47 62.6333 232.872C60.7075 234.275 59.2623 236.254 58.5003 238.533C57.7383 240.811 57.6977 243.274 58.3842 245.577C59.0707 247.88 60.4499 249.908 62.3285 251.375V247.729C61.1057 246.142 60.449 244.18 60.4657 242.165C60.4823 240.15 61.1712 238.201 62.42 236.634C63.6688 235.068 65.4037 233.978 67.3416 233.541C69.2794 233.105 71.3058 233.348 73.0899 234.231C74.874 235.115 76.3105 236.586 77.1649 238.404C78.0194 240.223 78.2413 242.282 77.7945 244.246C77.3476 246.209 76.2585 247.961 74.7047 249.215C73.1509 250.469 71.2243 251.151 69.2393 251.15V253.766C72.251 253.766 75.1393 252.552 77.2689 250.39C79.3984 248.228 80.5948 245.296 80.5948 242.238C80.5948 239.181 79.3984 236.249 77.2689 234.087C75.1393 231.925 72.251 230.711 69.2393 230.711Z" fill="black"/>
<path d="M72.9819 252.276C72.9817 250.602 73.4481 248.963 74.3271 247.547H71.4155C70.3646 249.912 70.1312 252.568 70.7531 255.084H73.4303C73.1338 254.179 72.9824 253.23 72.9819 252.276Z" fill="#009F3D"/>
<path d="M56.7197 263.805C54.4738 263.805 52.2784 263.129 50.411 261.862C48.5436 260.596 47.0881 258.795 46.2286 256.689C45.3692 254.583 45.1443 252.265 45.5825 250.029C46.0206 247.793 47.1021 245.739 48.6902 244.126C50.2783 242.514 52.3016 241.416 54.5044 240.972C56.7071 240.527 58.9903 240.755 61.0653 241.627C63.1402 242.5 64.9137 243.977 66.1615 245.873C67.4092 247.769 68.0752 249.998 68.0752 252.278C68.0725 255.334 66.8753 258.265 64.7463 260.426C62.6173 262.587 59.7306 263.802 56.7197 263.805ZM56.7197 243.366C54.9832 243.366 53.2857 243.889 51.8418 244.868C50.3979 245.847 49.2725 247.239 48.608 248.868C47.9434 250.497 47.7696 252.289 48.1083 254.018C48.4471 255.747 49.2833 257.335 50.5113 258.582C51.7392 259.828 53.3036 260.677 55.0068 261.021C56.71 261.365 58.4754 261.188 60.0797 260.514C61.6841 259.839 63.0554 258.697 64.0201 257.231C64.9849 255.765 65.4998 254.042 65.4998 252.279C65.4972 249.916 64.5712 247.65 62.9252 245.98C61.2792 244.309 59.0475 243.369 56.7197 243.366Z" fill="#F4C300"/>
<path d="M55.086 238.977H52.3665C52.8331 240.177 53.0367 241.466 52.9633 242.755C52.8899 244.044 52.5412 245.3 51.9414 246.438H54.7715C55.6884 244.055 55.799 241.43 55.086 238.977Z" fill="#0085C7"/>
<path d="M62.3281 247.727V251.373C64.3076 252.924 66.7382 253.765 69.2389 253.764V251.148C67.9067 251.148 66.592 250.84 65.3946 250.247C64.1971 249.654 63.1485 248.792 62.3281 247.727Z" fill="black"/>
<path d="M30.5186 217.786L39.9587 208.066C42.1964 205.748 44.1144 203.321 44.1144 200.773C44.1144 197.247 41.5771 195.259 38.4503 195.259C37.1505 195.208 35.8659 195.553 34.7668 196.249C33.6678 196.945 32.8063 197.958 32.2967 199.155L30.6384 198.156C31.3337 196.685 32.4431 195.448 33.8307 194.598C35.2184 193.749 36.8238 193.322 38.4503 193.371C42.3862 193.371 46.1024 195.978 46.1024 200.763C46.1024 203.97 43.8947 206.807 41.2774 209.454L33.2857 217.666H46.7117V219.544H30.5186V217.786Z" fill="black"/>
<path d="M49.9473 206.669C49.9473 198.677 53.4137 193.383 59.5972 193.383C65.7808 193.383 69.2372 198.717 69.2372 206.669C69.2372 214.621 65.7808 219.955 59.5972 219.955C53.4137 219.955 49.9473 214.621 49.9473 206.669ZM67.2493 206.669C67.2493 199.456 64.3823 195.261 59.5972 195.261C54.8122 195.261 51.9452 199.456 51.9452 206.669C51.9452 213.882 54.8222 218.077 59.6072 218.077C64.3923 218.077 67.2093 213.872 67.2093 206.669H67.2493Z" fill="black"/>
<path d="M72.3652 217.786L81.8254 208.066C84.0631 205.748 85.9811 203.321 85.9811 200.773C85.9811 197.247 83.4437 195.259 80.317 195.259C79.0172 195.208 77.7325 195.553 76.6335 196.249C75.5344 196.945 74.6729 197.958 74.1634 199.155L72.5051 198.156C73.2003 196.685 74.3098 195.448 75.6974 194.598C77.085 193.749 78.6905 193.322 80.317 193.371C84.2529 193.371 87.969 195.978 87.969 200.763C87.969 203.97 85.7613 206.807 83.144 209.454L75.1523 217.666H88.5584V219.544H72.3652V217.786Z" fill="black"/>
<path d="M109.606 214.14H106.299V219.554H104.301V214.14H90.4658V212.302L100.266 193.781H102.393L92.6436 212.302H104.351V204.2H106.349V212.302H109.656L109.606 214.14Z" fill="black"/>
<path d="M25.4136 114.629L36.4022 133.61C35.7529 133.61 35.0935 133.53 34.4043 133.53C30.7042 133.516 27.0492 134.342 23.7154 135.947L16.5928 122.581L12.487 127.876V138.764H0V98.4062H12.487V114.909L24.8442 98.4062H38.3701L25.4136 114.629Z" fill="#0081C8"/>
<path d="M53.8542 98.4062V138.794H49.5687C47.1308 136.866 44.3471 135.422 41.3672 134.539V98.4062H53.8542Z" fill="#EE334E"/>
<path d="M95.5498 126.795C94.9818 129.366 93.807 131.764 92.1234 133.788H62.4142C61.2737 132.604 60.3143 131.257 59.5672 129.792C57.851 126.315 57.0109 122.47 57.1197 118.594C57.0109 114.721 57.8511 110.88 59.5672 107.405C61.1217 104.374 63.5603 101.887 66.5599 100.273C69.8745 98.5579 73.5679 97.7058 77.2988 97.7955C80.0519 97.7588 82.7933 98.16 85.4203 98.9842C87.78 99.7406 89.929 101.041 91.6938 102.78C93.4737 104.623 94.6842 106.94 95.1802 109.453L84.3514 113.799C83.9019 111.182 83.1127 109.453 81.9939 108.594C80.7406 107.693 79.2207 107.239 77.6784 107.306C76.1811 107.265 74.7104 107.706 73.4827 108.564C72.2433 109.51 71.3258 110.814 70.8555 112.3C70.2082 114.323 69.9076 116.441 69.9664 118.564C69.9151 120.676 70.1949 122.782 70.7955 124.807C71.2243 126.306 72.1246 127.627 73.3629 128.573C74.7078 129.471 76.3027 129.919 77.9181 129.852C79.4563 129.899 80.9575 129.376 82.1338 128.384C83.4021 127.167 84.2044 125.545 84.4014 123.798L95.5498 126.795Z" fill="#FCB131"/>
<path d="M129.875 138.784V133.77H120.805L114.851 122.591L110.755 127.896V133.77H98.2783V98.4062H110.755V114.919L123.113 98.4062H136.638L123.682 114.629L137.617 138.784H129.875Z" fill="#00A651"/>
<path d="M106.63 145.989V153.281H123.232V162.981H106.63V178.126H93.7031V136.289H127.358V145.989H106.63Z" fill="black"/>
<path d="M70.9363 145.989V153.281H87.5491V162.981H70.9363V178.126H58.0098V136.289H91.6648V145.989H70.9363Z" fill="black"/>
<path d="M55.9414 157.081C55.9437 158.607 55.7762 160.128 55.4419 161.616C54.6434 165.075 52.9906 168.277 50.6346 170.932C48.2787 173.586 45.2948 175.607 41.9559 176.811C41.4365 177 40.907 177.17 40.3576 177.32C41.2078 176.986 42.0158 176.554 42.7651 176.031C44.8334 174.721 46.3289 172.676 46.9508 170.307C45.5877 171.753 43.7288 172.631 41.7462 172.765C42.865 172.265 46.0017 168.05 45.792 164.304C45.5822 160.558 42.3555 158.23 39.049 156.861C31.2671 153.645 34.3139 148.2 34.6635 147.611C33.8415 148.008 33.0412 148.448 32.266 148.93C20.0687 156.921 30.1782 168.589 27.3411 167.35C26.644 167.025 26.0059 166.587 25.4531 166.052C24.2201 164.84 23.2062 163.424 22.4562 161.866C22.45 161.856 22.4412 161.847 22.4307 161.841C22.4202 161.835 22.4083 161.832 22.3963 161.832C22.3842 161.832 22.3723 161.835 22.3618 161.841C22.3513 161.847 22.3425 161.856 22.3363 161.866C22.1665 162.865 21.9967 163.864 21.9068 164.933C21.787 166.025 21.787 167.127 21.9068 168.22C22.1101 170.317 22.9123 172.312 24.2177 173.966C25.523 175.62 27.2765 176.864 29.2691 177.55C26.5105 176.905 23.9044 175.727 21.5971 174.083C18.7796 172.111 16.4973 169.468 14.9559 166.393C13.4145 163.318 12.6624 159.908 12.7675 156.47C12.8725 153.033 13.8314 149.675 15.5577 146.7C17.2839 143.725 19.7233 141.227 22.656 139.429C23.0056 139.21 23.3752 139 23.7449 138.79L24.8637 138.211C28.9399 136.278 33.5051 135.624 37.9601 136.333L38.8592 136.502L39.5984 136.662L40.1278 136.792C40.5374 136.902 40.947 137.022 41.3466 137.162C42.6235 137.584 43.8577 138.126 45.0328 138.78C45.7223 139.161 46.3894 139.581 47.0307 140.039C47.5901 140.438 48.1295 140.858 48.649 141.307C52.0646 144.226 54.4499 148.166 55.4519 152.546C55.7831 154.035 55.9473 155.556 55.9414 157.081Z" fill="black"/>
<path d="M113.882 44.7833C113.887 47.968 113.537 51.1433 112.839 54.2507C111.172 61.4694 107.722 68.1551 102.804 73.696C97.886 79.237 91.6572 83.4565 84.6874 85.9686C83.603 86.3648 82.4978 86.7193 81.3508 87.0321C83.1256 86.3352 84.8123 85.4323 86.3765 84.342C90.6941 81.6061 93.8159 77.3369 95.114 72.393C92.2686 75.4114 88.3882 77.2437 84.2495 77.5229C86.585 76.4803 93.133 67.6802 92.695 59.8602C92.2571 52.0402 85.5215 47.1814 78.6191 44.3245C62.3743 37.6097 68.7346 26.2446 69.4645 25.0143C67.7484 25.8422 66.0778 26.761 64.4597 27.7669C38.9978 44.4496 60.1013 68.8063 54.179 66.2205C52.7237 65.542 51.3917 64.6258 50.2377 63.5095C47.6639 60.9797 45.5474 58.0236 43.9817 54.772C43.9687 54.7504 43.9504 54.7325 43.9285 54.7201C43.9065 54.7077 43.8818 54.7012 43.8566 54.7012C43.8314 54.7012 43.8066 54.7077 43.7847 54.7201C43.7628 54.7325 43.7444 54.7504 43.7315 54.772C43.377 56.8573 43.0224 58.9427 42.8348 61.174C42.5847 63.454 42.5847 65.7546 42.8348 68.0347C43.2593 72.4131 44.9338 76.5771 47.6587 80.0303C50.3837 83.4836 54.044 86.0806 58.2037 87.5117C52.445 86.1653 47.0047 83.7073 42.1883 80.2756C36.3068 76.1574 31.5426 70.6405 28.3249 64.2219C25.1072 57.8034 23.5372 50.6851 23.7565 43.5085C23.9758 36.332 25.9774 29.3228 29.581 23.1127C33.1846 16.9026 38.2768 11.6868 44.3988 7.93546C45.1286 7.47668 45.9002 7.03876 46.6718 6.60084L49.0073 5.39135C57.5164 1.35755 67.0463 -0.0090729 76.346 1.47091L78.2228 1.82542L79.766 2.15908L80.8712 2.43018C81.7262 2.65957 82.5812 2.9098 83.4153 3.20174C86.0809 4.08315 88.6573 5.21424 91.1102 6.57997C92.5496 7.37522 93.9421 8.25253 95.2809 9.20751C96.4486 10.0416 97.5747 10.9175 98.6591 11.8559C105.789 17.948 110.769 26.1738 112.86 35.3158C113.551 38.4239 113.894 41.5993 113.882 44.7833Z" fill="black"/>
</svg>
